<?xml version="1.0" standalone="no"?>
<!DOCTYPE svg PUBLIC "-//W3C//DTD SVG 20010904//EN"
 "http://www.w3.org/TR/2001/REC-SVG-20010904/DTD/svg10.dtd">
<svg version="1.0" xmlns="http://www.w3.org/2000/svg"
 width="512.000000pt" height="512.000000pt" viewBox="0 0 512.000000 512.000000"
 preserveAspectRatio="xMidYMid meet">
<metadata>
Created by potrace 1.14, written by Peter Selinger 2001-2017
</metadata>
<g transform="translate(0.000000,512.000000) scale(0.100000,-0.100000)"
fill="#000000" stroke="none">
<path d="M1990 4865 c-51 -14 -122 -43 -260 -108 -186 -88 -250 -117 -307
-141 -32 -13 -102 -45 -156 -70 -54 -25 -100 -46 -102 -46 -3 0 -37 -15 -77
-34 -40 -18 -109 -49 -153 -69 -44 -19 -105 -46 -135 -60 -30 -13 -170 -75
-310 -137 -140 -62 -266 -122 -278 -134 -33 -29 -52 -69 -52 -110 0 -75 28
-109 133 -162 37 -19 70 -40 72 -47 15 -40 4 -226 -14 -256 -5 -8 -40 -27 -78
-42 -74 -29 -101 -56 -108 -109 -9 -68 26 -124 105 -167 34 -19 35 -22 41 -89
6 -81 11 -92 148 -281 53 -72 103 -141 111 -153 8 -12 36 -51 63 -87 26 -36
47 -68 47 -72 0 -3 -15 -12 -32 -20 -37 -16 -124 -55 -213 -96 -33 -15 -96
-43 -139 -61 -115 -47 -148 -104 -127 -216 4 -23 60 -70 115 -98 36 -17 71
-38 77 -47 16 -19 14 -174 -3 -232 -12 -41 -17 -45 -75 -66 -72 -26 -89 -37
-109 -77 -20 -40 -10 -104 24 -147 29 -36 21 -32 877 -466 586 -297 1046 -531
1300 -660 255 -130 278 -138 365 -138 69 1 123 18 275 88 44 20 89 40 100 45
11 5 69 32 129 60 59 27 110 50 111 50 2 0 39 16 82 36 87 40 98 46 368 167
105 46 217 97 250 112 33 16 119 54 190 85 473 206 559 251 626 327 79 90 103
213 69 345 -39 148 -105 218 -309 322 l-146 74 -79 126 -78 127 17 44 c9 25
20 45 23 46 95 10 138 58 133 146 -1 22 -49 83 -154 198 l-55 60 24 13 c13 7
110 51 216 98 263 117 342 175 397 294 20 43 25 71 25 130 0 151 -58 277 -163
354 -25 18 -487 255 -1026 526 -539 271 -1130 569 -1314 662 -354 179 -374
186 -461 163z"/>
</g>
</svg>
